<svg width="73" height="72" viewBox="0 0 73 72" fill="none" xmlns="http://www.w3.org/2000/svg">
<path fill-rule="evenodd" clip-rule="evenodd" d="M36.3999 63.7097C38.5528 64.7146 44.8114 69.4375 47.415 70.9449C48.917 71.8493 50.0185 72.3517 51.12 71.6483C52.0713 71.0454 53.3731 69.739 55.1756 67.2268C58.8807 62.1521 62.2853 54.314 63.9376 51.5506C67.4925 44.2149 71.7483 34.7188 72.7497 25.5241C74.6022 8.69225 61.1338 -3.36637 47.0144 0.803907C42.8587 2.06001 38.0521 5.42638 36.8004 8.13957C35.3484 7.3859 33.0953 2.96441 26.4863 0.904395C21.4294 -0.602932 16.1221 -0.10049 11.8663 2.00977C4.65639 5.52687 -0.951297 13.7669 0.150212 25.0719C1.40193 37.3315 9.16256 52.656 15.1708 62.9058C20.8786 71.3468 20.9787 73.3566 24.6838 71.2463C28.3889 69.0356 32.4445 65.9707 36.3999 63.7097ZM36.3999 58.1326C37.8519 57.5297 44.2106 52.6057 45.7126 51.3999L52.2716 45.9735C57.1783 41.9539 66.1406 33.111 68.1434 25.1221C69.2949 20.5499 67.9431 15.5757 65.8903 12.2596C63.9376 9.14445 61.2339 6.38102 56.8779 5.02442C52.1214 3.56734 47.465 4.67271 44.0604 6.98395C40.0549 9.74738 38.703 13.164 36.9506 14.9225L36.3498 15.4752C35.048 13.0635 31.5933 8.79274 28.9396 6.98395C25.4849 4.57222 20.8285 3.5171 16.1221 4.97418C9.2627 7.08444 2.5535 15.3747 4.90673 25.1724C6.7092 33.0105 17.3237 43.6622 22.6811 47.6818C26.0357 50.2442 33.0953 56.2735 36.3999 58.1326ZM23.0316 67.3273L32.6447 60.9965C27.3375 57.4292 16.7229 48.7369 12.1166 43.9135L9.36283 41.15C10.5144 46.074 17.7744 58.9365 21.0288 64.2624C21.5796 65.217 22.5809 66.5736 23.0316 67.3273ZM40.3553 60.9965L49.7682 67.3775C52.6221 65.0161 62.1351 45.9232 63.7874 41.0998C62.8361 41.8032 62.2353 42.9086 61.2339 43.813C53.6235 50.7467 49.3176 54.7662 40.3553 60.9965Z" fill="white"/>
</svg>
